<svg aria-hidden="true" style="position: absolute; width: 0; height: 0; overflow: hidden;" version="1.1" xmlns="http://www.w3.org/2000/svg" xmlns:xlink="http://www.w3.org/1999/xlink">
<defs>
<symbol id="icon-visa" viewBox="0 0 32 32">
<path fill="#142787" style="fill: var(--color1, #142787)" d="M23.26 11.497c-0.516-0.195-1.32-0.401-2.32-0.401-2.56 0-4.367 1.291-4.38 3.14-0.016 1.36 1.285 2.125 2.268 2.581 1.009 0.467 1.347 0.76 1.344 1.18-0.007 0.636-0.807 0.924-1.549 0.924-1.021 0-1.581-0.143-2.441-0.5l-0.319-0.148-0.361 2.131c0.621 0.26 1.741 0.483 2.9 0.5 2.721 0 4.5-1.281 4.521-3.252 0.021-1.084-0.68-1.907-2.161-2.584-0.899-0.44-1.459-0.735-1.459-1.181 0-0.395 0.479-0.816 1.479-0.816 0.86-0.013 1.461 0.172 1.94 0.364l0.24 0.108 0.361-2.059zM29.904 11.271h-2c-0.623 0-1.088 0.169-1.361 0.788l-3.847 8.712h2.721l0.544-1.427 3.32 0.003c0.081 0.333 0.32 1.424 0.32 1.424h2.399zM12.88 11.191h2.591l-1.62 9.505h-2.592l1.621-9.508zM6.295 16.429l0.269 1.32 2.535-6.479h2.745l-4.081 9.487h-2.739l-2.24-8.035c-0.047-0.137-0.104-0.231-0.24-0.316-0.757-0.396-1.604-0.719-2.544-0.943l0.033-0.2h4.175c0.565 0.021 1.021 0.2 1.177 0.805l0.909 4.364zM26.705 17.399l1.033-2.659c-0.013 0.027 0.213-0.549 0.344-0.907l0.177 0.82 0.599 2.743h-2.153z"></path>
</symbol>
<symbol id="icon-facebook" viewBox="0 0 16 28">
<path d="M14.984 0.187v4.125h-2.453c-1.922 0-2.281 0.922-2.281 2.25v2.953h4.578l-0.609 4.625h-3.969v11.859h-4.781v-11.859h-3.984v-4.625h3.984v-3.406c0-3.953 2.422-6.109 5.953-6.109 1.687 0 3.141 0.125 3.563 0.187z"></path>
</symbol>
<symbol id="icon-video-camera" viewBox="0 0 28 28">
<path d="M28 5.5v17c0 0.406-0.25 0.766-0.609 0.922-0.125 0.047-0.266 0.078-0.391 0.078-0.266 0-0.516-0.094-0.703-0.297l-6.297-6.297v2.594c0 2.484-2.016 4.5-4.5 4.5h-11c-2.484 0-4.5-2.016-4.5-4.5v-11c0-2.484 2.016-4.5 4.5-4.5h11c2.484 0 4.5 2.016 4.5 4.5v2.578l6.297-6.281c0.187-0.203 0.438-0.297 0.703-0.297 0.125 0 0.266 0.031 0.391 0.078 0.359 0.156 0.609 0.516 0.609 0.922z"></path>
</symbol>
<symbol id="icon-bath" viewBox="0 0 28 28">
<path d="M26 17v3c0 1.781-0.781 3.359-2 4.469v3.031c0 0.281-0.219 0.5-0.5 0.5h-1c-0.281 0-0.5-0.219-0.5-0.5v-1.844c-0.625 0.219-1.297 0.344-2 0.344h-12c-0.703 0-1.375-0.125-2-0.344v1.719c0 0.344-0.219 0.625-0.5 0.625h-1c-0.281 0-0.5-0.281-0.5-0.625v-2.906c-1.219-1.109-2-2.688-2-4.469v-3h24zM11 10.5c0 0.281-0.219 0.5-0.5 0.5s-0.5-0.219-0.5-0.5 0.219-0.5 0.5-0.5 0.5 0.219 0.5 0.5zM12 9.5c0 0.281-0.219 0.5-0.5 0.5s-0.5-0.219-0.5-0.5 0.219-0.5 0.5-0.5 0.5 0.219 0.5 0.5zM11 8.5c0 0.281-0.219 0.5-0.5 0.5s-0.5-0.219-0.5-0.5 0.219-0.5 0.5-0.5 0.5 0.219 0.5 0.5zM13 8.5c0 0.281-0.219 0.5-0.5 0.5s-0.5-0.219-0.5-0.5 0.219-0.5 0.5-0.5 0.5 0.219 0.5 0.5zM12 7.5c0 0.281-0.219 0.5-0.5 0.5s-0.5-0.219-0.5-0.5 0.219-0.5 0.5-0.5 0.5 0.219 0.5 0.5zM11 6.5c0 0.281-0.219 0.5-0.5 0.5s-0.5-0.219-0.5-0.5 0.219-0.5 0.5-0.5 0.5 0.219 0.5 0.5zM28 14.5v1c0 0.281-0.219 0.5-0.5 0.5h-27c-0.281 0-0.5-0.219-0.5-0.5v-1c0-0.281 0.219-0.5 0.5-0.5h1.5v-10c0-2.203 1.797-4 4-4 1.125 0 2.141 0.469 2.875 1.219 0.969-0.391 2.125-0.25 2.984 0.422l0.344-0.344c0.094-0.094 0.25-0.094 0.344 0l0.656 0.656c0.094 0.094 0.094 0.25 0 0.344l-4.906 4.906c-0.094 0.094-0.25 0.094-0.344 0l-0.656-0.656c-0.094-0.094-0.094-0.25 0-0.344l0.344-0.344c-0.75-0.953-0.844-2.266-0.266-3.313-0.359-0.344-0.844-0.547-1.375-0.547-1.109 0-2 0.891-2 2v10h23.5c0.281 0 0.5 0.219 0.5 0.5zM14 7.5c0 0.281-0.219 0.5-0.5 0.5s-0.5-0.219-0.5-0.5 0.219-0.5 0.5-0.5 0.5 0.219 0.5 0.5zM13 6.5c0 0.281-0.219 0.5-0.5 0.5s-0.5-0.219-0.5-0.5 0.219-0.5 0.5-0.5 0.5 0.219 0.5 0.5zM12 5.5c0 0.281-0.219 0.5-0.5 0.5s-0.5-0.219-0.5-0.5 0.219-0.5 0.5-0.5 0.5 0.219 0.5 0.5zM15 6.5c0 0.281-0.219 0.5-0.5 0.5s-0.5-0.219-0.5-0.5 0.219-0.5 0.5-0.5 0.5 0.219 0.5 0.5zM14 5.5c0 0.281-0.219 0.5-0.5 0.5s-0.5-0.219-0.5-0.5 0.219-0.5 0.5-0.5 0.5 0.219 0.5 0.5zM13 4.5c0 0.281-0.219 0.5-0.5 0.5s-0.5-0.219-0.5-0.5 0.219-0.5 0.5-0.5 0.5 0.219 0.5 0.5zM16 5.5c0 0.281-0.219 0.5-0.5 0.5s-0.5-0.219-0.5-0.5 0.219-0.5 0.5-0.5 0.5 0.219 0.5 0.5zM15 4.5c0 0.281-0.219 0.5-0.5 0.5s-0.5-0.219-0.5-0.5 0.219-0.5 0.5-0.5 0.5 0.219 0.5 0.5zM17 4.5c0 0.281-0.219 0.5-0.5 0.5s-0.5-0.219-0.5-0.5 0.219-0.5 0.5-0.5 0.5 0.219 0.5 0.5z"></path>
</symbol>
<symbol id="icon-bed" viewBox="0 0 32 28">
<path d="M4 16h27c0.547 0 1 0.453 1 1v7h-4v-4h-24v4h-4v-19c0-0.547 0.453-1 1-1h2c0.547 0 1 0.453 1 1v11zM13 11c0-2.203-1.797-4-4-4s-4 1.797-4 4 1.797 4 4 4 4-1.797 4-4zM32 15v-1c0-3.313-2.688-6-6-6h-11c-0.547 0-1 0.453-1 1v6h18z"></path>
</symbol>
<symbol id="icon-search" viewBox="0 0 32 32">
<path d="M19.427 20.427c-1.39 0.99-3.090 1.573-4.927 1.573-4.694 0-8.5-3.806-8.5-8.5s3.806-8.5 8.5-8.5c4.694 0 8.5 3.806 8.5 8.5 0 1.837-0.583 3.537-1.573 4.927l5.585 5.585c0.55 0.55 0.546 1.431-0 1.976l-0.023 0.023c-0.544 0.544-1.431 0.546-1.976 0l-5.585-5.585zM14.5 20c3.59 0 6.5-2.91 6.5-6.5s-2.91-6.5-6.5-6.5c-3.59 0-6.5 2.91-6.5 6.5s2.91 6.5 6.5 6.5v0z"></path>
</symbol>
<symbol id="icon-email" viewBox="0 0 24 24">
<path d="M20.016 8.016v-2.016l-8.016 5.016-8.016-5.016v2.016l8.016 4.969zM20.016 3.984q0.797 0 1.383 0.609t0.586 1.406v12q0 0.797-0.586 1.406t-1.383 0.609h-16.031q-0.797 0-1.383-0.609t-0.586-1.406v-12q0-0.797 0.586-1.406t1.383-0.609h16.031z"></path>
</symbol>
<symbol id="icon-location_on" viewBox="0 0 24 24">
<path d="M12 11.484q1.031 0 1.758-0.727t0.727-1.758-0.727-1.758-1.758-0.727-1.758 0.727-0.727 1.758 0.727 1.758 1.758 0.727zM12 2.016q2.906 0 4.945 2.039t2.039 4.945q0 1.453-0.727 3.328t-1.758 3.516-2.039 3.070-1.711 2.273l-0.75 0.797q-0.281-0.328-0.75-0.867t-1.688-2.156-2.133-3.141-1.664-3.445-0.75-3.375q0-2.906 2.039-4.945t4.945-2.039z"></path>
</symbol>
<symbol id="icon-photo_size_select_small" viewBox="0 0 24 24">
<path d="M6.984 3v2.016h-1.969v-2.016h1.969zM11.016 3v2.016h-2.016v-2.016h2.016zM3 11.016v1.969h-2.016v-1.969h2.016zM3 3v2.016h-2.016q0-0.75 0.633-1.383t1.383-0.633zM18.984 18.984v2.016h-1.969v-2.016h1.969zM18.984 3v2.016h-1.969v-2.016h1.969zM15 18.984v2.016h-2.016v-2.016h2.016zM3 6.984v2.016h-2.016v-2.016h2.016zM3 21q-0.797 0-1.406-0.609t-0.609-1.406v-3.984h10.031v6h-8.016zM21 3q0.75 0 1.383 0.633t0.633 1.383h-2.016v-2.016zM23.016 6.984v2.016h-2.016v-2.016h2.016zM15 3v2.016h-2.016v-2.016h2.016zM23.016 18.984q0 0.75-0.633 1.383t-1.383 0.633v-2.016h2.016zM23.016 11.016v1.969h-2.016v-1.969h2.016zM23.016 15v2.016h-2.016v-2.016h2.016z"></path>
</symbol>
<symbol id="icon-pool" viewBox="0 0 24 24">
<path d="M14.016 5.484q0-1.031 0.727-1.758t1.758-0.727 1.758 0.727 0.727 1.758-0.727 1.781-1.758 0.75-1.758-0.75-0.727-1.781zM8.672 12q-0.563 0-1.172-0.375-0.188-0.141-0.75-0.375l3.234-3.234-0.984-1.031q-1.5-1.5-3.984-1.5v-2.484q1.922 0 3.141 0.445t2.344 1.57l6.422 6.375q-0.281 0.188-0.422 0.234-0.609 0.375-1.172 0.375-0.516 0-1.125-0.375-1.031-0.609-2.203-0.609t-2.203 0.609q-0.609 0.375-1.125 0.375zM21.984 16.5q-1.078 0-2.156-0.656-0.516-0.328-1.172-0.328-0.609 0-1.125 0.328-1.078 0.656-2.203 0.656-1.078 0-2.156-0.656-0.516-0.328-1.172-0.328-0.609 0-1.125 0.328-1.078 0.656-2.203 0.656-1.078 0-2.156-0.656-0.516-0.328-1.172-0.328-0.609 0-1.125 0.328-1.078 0.656-2.203 0.656v-2.016q0.609 0 1.125-0.328 1.078-0.656 2.203-0.656 1.078 0 2.156 0.656 0.516 0.328 1.172 0.328 0.609 0 1.125-0.328 1.078-0.656 2.203-0.656 1.078 0 2.156 0.656 0.516 0.328 1.172 0.328 0.609 0 1.125-0.328 1.078-0.656 2.203-0.656 1.078 0 2.156 0.656 0.516 0.328 1.172 0.328v2.016zM21.984 21q-1.078 0-2.156-0.656-0.516-0.328-1.172-0.328-0.609 0-1.125 0.328-1.078 0.656-2.203 0.656-1.078 0-2.156-0.656-0.516-0.328-1.172-0.328-0.609 0-1.125 0.328-1.078 0.656-2.203 0.656t-2.203-0.656q-0.516-0.328-1.125-0.328-0.656 0-1.172 0.328-1.078 0.656-2.156 0.656v-2.016q0.609 0 1.125-0.328 1.078-0.656 2.203-0.656 1.078 0 2.156 0.656 0.516 0.328 1.172 0.328 0.609 0 1.125-0.328 1.078-0.656 2.203-0.656t2.203 0.656q0.516 0.328 1.125 0.328 0.656 0 1.172-0.328 1.078-0.656 2.156-0.656 1.125 0 2.203 0.656 0.516 0.328 1.125 0.328v2.016z"></path>
</symbol>
<symbol id="icon-chevron-small-left" viewBox="0 0 20 20">
<path d="M12.141 13.418c0.268 0.271 0.268 0.709 0 0.978s-0.701 0.272-0.969 0l-3.83-3.908c-0.268-0.27-0.268-0.707 0-0.979l3.83-3.908c0.267-0.27 0.701-0.27 0.969 0s0.268 0.709 0 0.978l-3.141 3.421 3.141 3.418z"></path>
</symbol>
<symbol id="icon-chevron-small-right" viewBox="0 0 20 20">
<path d="M11 10l-3.141-3.42c-0.268-0.27-0.268-0.707 0-0.978 0.268-0.27 0.701-0.27 0.969 0l3.83 3.908c0.268 0.271 0.268 0.709 0 0.979l-3.83 3.908c-0.267 0.272-0.701 0.27-0.969 0s-0.268-0.707 0-0.978l3.141-3.419z"></path>
</symbol>
<symbol id="icon-twitter" viewBox="0 0 20 20">
<path d="M17.316 6.246c0.008 0.162 0.011 0.326 0.011 0.488 0 4.99-3.797 10.742-10.74 10.742-2.133 0-4.116-0.625-5.787-1.697 0.296 0.035 0.596 0.053 0.9 0.053 1.77 0 3.397-0.604 4.688-1.615-1.651-0.031-3.046-1.121-3.526-2.621 0.23 0.043 0.467 0.066 0.71 0.066 0.345 0 0.679-0.045 0.995-0.131-1.727-0.348-3.028-1.873-3.028-3.703 0-0.016 0-0.031 0-0.047 0.509 0.283 1.092 0.453 1.71 0.473-1.013-0.678-1.68-1.832-1.68-3.143 0-0.691 0.186-1.34 0.512-1.898 1.861 2.285 4.644 3.787 7.781 3.945-0.064-0.277-0.097-0.564-0.097-0.861 0-2.084 1.689-3.773 3.774-3.773 1.086 0 2.067 0.457 2.756 1.191 0.859-0.17 1.667-0.484 2.397-0.916-0.282 0.881-0.881 1.621-1.66 2.088 0.764-0.092 1.49-0.293 2.168-0.594-0.506 0.758-1.146 1.422-1.884 1.953z"></path>
</symbol>
<symbol id="icon-home2" viewBox="0 0 32 32">
<path d="M16 1l-16 16 3 3 3-3v13h8v-6h4v6h8v-13l3 3 3-3-16-16zM16 14c-1.105 0-2-0.895-2-2s0.895-2 2-2c1.105 0 2 0.895 2 2s-0.895 2-2 2z"></path>
</symbol>
<symbol id="icon-office" viewBox="0 0 32 32">
<path d="M0 32h16v-32h-16v32zM10 4h4v4h-4v-4zM10 12h4v4h-4v-4zM10 20h4v4h-4v-4zM2 4h4v4h-4v-4zM2 12h4v4h-4v-4zM2 20h4v4h-4v-4zM18 10h14v2h-14zM18 32h4v-8h6v8h4v-18h-14z"></path>
</symbol>
<symbol id="icon-library" viewBox="0 0 34 32">
<path d="M32 30v-2h-2v-12h2v-2h-6v2h2v12h-6v-12h2v-2h-6v2h2v12h-6v-12h2v-2h-6v2h2v12h-6v-12h2v-2h-6v2h2v12h-2v2h-2v2h34v-2h-2z"></path>
<path d="M16 0h2l16 10v2h-34v-2l16-10z"></path>
</symbol>
<symbol id="icon-phone" viewBox="0 0 32 32">
<path d="M22 20c-2 2-2 4-4 4s-4-2-6-4-4-4-4-6 2-2 4-4-4-8-6-8-6 6-6 6c0 4 4.109 12.109 8 16s12 8 16 8c0 0 6-4 6-6s-6-8-8-6z"></path>
</symbol>
<symbol id="icon-search1" viewBox="0 0 32 32">
<path d="M31.008 27.231l-7.58-6.447c-0.784-0.705-1.622-1.029-2.299-0.998 1.789-2.096 2.87-4.815 2.87-7.787 0-6.627-5.373-12-12-12s-12 5.373-12 12 5.373 12 12 12c2.972 0 5.691-1.081 7.787-2.87-0.031 0.677 0.293 1.515 0.998 2.299l6.447 7.58c1.104 1.226 2.907 1.33 4.007 0.23s0.997-2.903-0.23-4.007zM12 20c-4.418 0-8-3.582-8-8s3.582-8 8-8 8 3.582 8 8-3.582 8-8 8z"></path>
</symbol>
<symbol id="icon-instagram" viewBox="0 0 32 32">
<path d="M16 2.881c4.275 0 4.781 0.019 6.462 0.094 1.563 0.069 2.406 0.331 2.969 0.55 0.744 0.288 1.281 0.638 1.837 1.194 0.563 0.563 0.906 1.094 1.2 1.838 0.219 0.563 0.481 1.412 0.55 2.969 0.075 1.688 0.094 2.194 0.094 6.463s-0.019 4.781-0.094 6.463c-0.069 1.563-0.331 2.406-0.55 2.969-0.288 0.744-0.637 1.281-1.194 1.837-0.563 0.563-1.094 0.906-1.837 1.2-0.563 0.219-1.413 0.481-2.969 0.55-1.688 0.075-2.194 0.094-6.463 0.094s-4.781-0.019-6.463-0.094c-1.563-0.069-2.406-0.331-2.969-0.55-0.744-0.288-1.281-0.637-1.838-1.194-0.563-0.563-0.906-1.094-1.2-1.837-0.219-0.563-0.481-1.413-0.55-2.969-0.075-1.688-0.094-2.194-0.094-6.463s0.019-4.781 0.094-6.463c0.069-1.563 0.331-2.406 0.55-2.969 0.288-0.744 0.638-1.281 1.194-1.838 0.563-0.563 1.094-0.906 1.838-1.2 0.563-0.219 1.412-0.481 2.969-0.55 1.681-0.075 2.188-0.094 6.463-0.094zM16 0c-4.344 0-4.887 0.019-6.594 0.094-1.7 0.075-2.869 0.35-3.881 0.744-1.056 0.412-1.95 0.956-2.837 1.85-0.894 0.888-1.438 1.781-1.85 2.831-0.394 1.019-0.669 2.181-0.744 3.881-0.075 1.713-0.094 2.256-0.094 6.6s0.019 4.887 0.094 6.594c0.075 1.7 0.35 2.869 0.744 3.881 0.413 1.056 0.956 1.95 1.85 2.837 0.887 0.887 1.781 1.438 2.831 1.844 1.019 0.394 2.181 0.669 3.881 0.744 1.706 0.075 2.25 0.094 6.594 0.094s4.888-0.019 6.594-0.094c1.7-0.075 2.869-0.35 3.881-0.744 1.050-0.406 1.944-0.956 2.831-1.844s1.438-1.781 1.844-2.831c0.394-1.019 0.669-2.181 0.744-3.881 0.075-1.706 0.094-2.25 0.094-6.594s-0.019-4.887-0.094-6.594c-0.075-1.7-0.35-2.869-0.744-3.881-0.394-1.063-0.938-1.956-1.831-2.844-0.887-0.887-1.781-1.438-2.831-1.844-1.019-0.394-2.181-0.669-3.881-0.744-1.712-0.081-2.256-0.1-6.6-0.1v0z"></path>
<path d="M16 7.781c-4.537 0-8.219 3.681-8.219 8.219s3.681 8.219 8.219 8.219 8.219-3.681 8.219-8.219c0-4.537-3.681-8.219-8.219-8.219zM16 21.331c-2.944 0-5.331-2.387-5.331-5.331s2.387-5.331 5.331-5.331c2.944 0 5.331 2.387 5.331 5.331s-2.387 5.331-5.331 5.331z"></path>
<path d="M26.462 7.456c0 1.060-0.859 1.919-1.919 1.919s-1.919-0.859-1.919-1.919c0-1.060 0.859-1.919 1.919-1.919s1.919 0.859 1.919 1.919z"></path>
</symbol>
<symbol id="icon-pinterest" viewBox="0 0 32 32">
<path d="M16 2.138c-7.656 0-13.863 6.206-13.863 13.863 0 5.875 3.656 10.887 8.813 12.906-0.119-1.094-0.231-2.781 0.050-3.975 0.25-1.081 1.625-6.887 1.625-6.887s-0.412-0.831-0.412-2.056c0-1.925 1.119-3.369 2.506-3.369 1.181 0 1.756 0.887 1.756 1.95 0 1.188-0.756 2.969-1.15 4.613-0.331 1.381 0.688 2.506 2.050 2.506 2.462 0 4.356-2.6 4.356-6.35 0-3.319-2.387-5.638-5.787-5.638-3.944 0-6.256 2.956-6.256 6.019 0 1.194 0.456 2.469 1.031 3.163 0.113 0.137 0.131 0.256 0.094 0.4-0.106 0.438-0.338 1.381-0.387 1.575-0.063 0.256-0.2 0.306-0.463 0.188-1.731-0.806-2.813-3.337-2.813-5.369 0-4.375 3.175-8.387 9.156-8.387 4.806 0 8.544 3.425 8.544 8.006 0 4.775-3.012 8.625-7.194 8.625-1.406 0-2.725-0.731-3.175-1.594 0 0-0.694 2.644-0.863 3.294-0.313 1.206-1.156 2.712-1.725 3.631 1.3 0.4 2.675 0.619 4.106 0.619 7.656 0 13.863-6.206 13.863-13.863 0-7.662-6.206-13.869-13.863-13.869z"></path>
</symbol>
</defs>
</svg>
