<svg id="Layer_1" data-name="Layer 1" xmlns="http://www.w3.org/2000/svg" viewBox="0 0 154.11 62.52"><defs><style>.cls-1{isolation:isolate;font-size:60px;fill:#3a3a3a;font-family:Lato-Bold, Lato;font-weight:700;letter-spacing:-0.05em;}.cls-2,.cls-3{fill:none;stroke:#3a3a3a;stroke-linecap:round;stroke-linejoin:round;}.cls-2{stroke-width:2px;}.cls-3{stroke-width:6px;}</style></defs><title>coruja-logo</title><text class="cls-1" transform="translate(0 51.69)"><tspan xml:space="preserve">c    ruja</tspan></text><path class="cls-2" d="M75.9,48.81c-12.79,1.74-12.5,11.3-12.5,11.3C63,50.45,55.14,48.66,50.32,48.48a14.38,14.38,0,1,0,26,1.23C76.2,49.4,76.05,49.11,75.9,48.81Z" transform="translate(-18.37 -19.05)"/><path class="cls-2" d="M58.23,55.2a1.58,1.58,0,1,1-1.58-1.58A1.63,1.63,0,0,1,58.23,55.2Z" transform="translate(-18.37 -19.05)"/><path class="cls-2" d="M71.29,55.37a1.58,1.58,0,1,1-1.58-1.57A1.57,1.57,0,0,1,71.29,55.37Z" transform="translate(-18.37 -19.05)"/><circle class="cls-3" cx="44.66" cy="36.14" r="14.38"/></svg>